<svg id="Layer_1" data-name="Layer 1" xmlns="http://www.w3.org/2000/svg" viewBox="0 0 119.25 23.17"><defs><style>.cls-1{fill:#faef5b;}.cls-2{fill:#231f20;}</style></defs><title>invite others</title><rect class="cls-1" width="119.25" height="23.17" rx="11.58"/><path class="cls-2" d="M29,7.38h1v7.87H29Z" transform="translate(-0.38 -0.42)"/><path class="cls-2" d="M32.06,9.42h.81l.09.84h0a2.78,2.78,0,0,1,1.95-1c1.23,0,1.78.79,1.78,2.28v3.69h-1V11.69c0-1.09-.33-1.55-1.1-1.55A2.22,2.22,0,0,0,33,11v4.22h-1Z" transform="translate(-0.38 -0.42)"/><path class="cls-2" d="M37.78,9.42h1l1.1,3.31.54,1.72h.05L41,12.73l1.1-3.31h1L41,15.25H39.89Z" transform="translate(-0.38 -0.42)"/><path class="cls-2" d="M44.05,7.59a.68.68,0,0,1,1.36,0,.68.68,0,0,1-1.36,0Zm.18,1.83h1v5.83h-1Z" transform="translate(-0.38 -0.42)"/><path class="cls-2" d="M47.35,13.45V10.23h-.87V9.48l.91-.06.12-1.63h.83V9.42h1.58v.81H48.34v3.24c0,.71.23,1.12.9,1.12a2.11,2.11,0,0,0,.66-.15l.19.74A3.46,3.46,0,0,1,49,15.4C47.77,15.4,47.35,14.61,47.35,13.45Z" transform="translate(-0.38 -0.42)"/><path class="cls-2" d="M50.63,12.35a2.81,2.81,0,0,1,2.62-3.07c1.49,0,2.33,1.07,2.33,2.73a2.9,2.9,0,0,1,0,.56H51.61a1.93,1.93,0,0,0,1.93,2A2.57,2.57,0,0,0,55,14.14l.35.65a3.38,3.38,0,0,1-1.93.61A2.79,2.79,0,0,1,50.63,12.35Zm4.08-.48c0-1.17-.53-1.81-1.44-1.81a1.79,1.79,0,0,0-1.67,1.81Z" transform="translate(-0.38 -0.42)"/><path class="cls-2" d="M59.05,11.29c0-2.52,1.39-4,3.37-4s3.36,1.53,3.36,4-1.39,4.11-3.36,4.11S59.05,13.81,59.05,11.29Zm5.7,0c0-2-.93-3.17-2.33-3.17s-2.33,1.21-2.33,3.17.92,3.23,2.33,3.23S64.75,13.25,64.75,11.29Z" transform="translate(-0.38 -0.42)"/><path class="cls-2" d="M67.56,13.45V10.23h-.87V9.48l.91-.06.12-1.63h.82V9.42h1.58v.81H68.54v3.24c0,.71.23,1.12.91,1.12a2.18,2.18,0,0,0,.66-.15l.19.74a3.58,3.58,0,0,1-1.08.22C68,15.4,67.56,14.61,67.56,13.45Z" transform="translate(-0.38 -0.42)"/><path class="cls-2" d="M71.44,6.71h1V9l0,1.2a2.82,2.82,0,0,1,1.94-1c1.23,0,1.78.79,1.78,2.28v3.69h-1V11.69c0-1.09-.33-1.55-1.1-1.55a2.2,2.2,0,0,0-1.59.89v4.22h-1Z" transform="translate(-0.38 -0.42)"/><path class="cls-2" d="M77.54,12.35a2.81,2.81,0,0,1,2.62-3.07c1.48,0,2.32,1.07,2.32,2.73a3,3,0,0,1,0,.56H78.51a1.94,1.94,0,0,0,1.94,2,2.51,2.51,0,0,0,1.45-.47l.35.65a3.37,3.37,0,0,1-1.92.61A2.79,2.79,0,0,1,77.54,12.35Zm4.07-.48c0-1.17-.52-1.81-1.44-1.81a1.79,1.79,0,0,0-1.67,1.81Z" transform="translate(-0.38 -0.42)"/><path class="cls-2" d="M83.92,9.42h.82l.08,1.06h0a2,2,0,0,1,1.66-1.2,1.3,1.3,0,0,1,.62.12l-.18.86a1.7,1.7,0,0,0-.57-.09c-.49,0-1.08.35-1.47,1.34v3.74h-1Z" transform="translate(-0.38 -0.42)"/><path class="cls-2" d="M87.39,14.59l.49-.65a2.65,2.65,0,0,0,1.72.69c.76,0,1.14-.41,1.14-.91s-.68-.86-1.33-1.1c-.82-.3-1.74-.7-1.74-1.69s.75-1.65,2-1.65a3,3,0,0,1,1.82.65l-.48.64a2.16,2.16,0,0,0-1.33-.52c-.73,0-1.07.39-1.07.83s.63.77,1.3,1c.84.32,1.77.66,1.77,1.77,0,.95-.75,1.74-2.12,1.74A3.56,3.56,0,0,1,87.39,14.59Z" transform="translate(-0.38 -0.42)"/></svg>