<svg id="Layer_1" data-name="Layer 1" xmlns="http://www.w3.org/2000/svg" viewBox="0 0 240 48">
    <defs>
        <style>.cls-1{fill:#faef5b;}.cls-2{fill:#231f20;}</style>
    </defs>
    <title>invite others2</title>
    <rect class="cls-1" width="240" height="48" rx="24"/>
    <path class="cls-2" d="M58,14.75h2V30.5H58Z" transform="translate(0 0)"/>
    <path class="cls-2"
          d="M64.12,18.84h1.63l.17,1.68H66a5.58,5.58,0,0,1,3.91-2c2.46,0,3.57,1.59,3.57,4.56V30.5h-2V23.37c0-2.18-.65-3.11-2.2-3.11-1.19,0-2,.61-3.19,1.8V30.5h-2Z"
          transform="translate(0 0)"/>
    <path class="cls-2"
          d="M75.56,18.84h2l2.21,6.62c.34,1.14.72,2.33,1.07,3.45H81c.35-1.12.73-2.31,1.08-3.45l2.2-6.62H86.2L82.07,30.5h-2.3Z"
          transform="translate(0 0)"/>
    <path class="cls-2" d="M88.09,15.16a1.37,1.37,0,0,1,2.73,0,1.37,1.37,0,0,1-2.73,0Zm.36,3.68h2V30.5h-2Z"
          transform="translate(0 0)"/>
    <path class="cls-2"
          d="M94.7,26.9V20.45H93V19l1.82-.11L95,15.56h1.65v3.28h3.16v1.61H96.68v6.48c0,1.43.46,2.25,1.8,2.25a3.8,3.8,0,0,0,1.33-.31l.38,1.49a7,7,0,0,1-2.16.43C95.54,30.79,94.7,29.22,94.7,26.9Z"
          transform="translate(0 0)"/>
    <path class="cls-2"
          d="M101.27,24.69c0-3.8,2.56-6.14,5.24-6.14,3,0,4.66,2.14,4.66,5.47a5.8,5.8,0,0,1-.1,1.12h-7.85c.14,2.48,1.65,4.08,3.87,4.08a5.14,5.14,0,0,0,2.91-.93l.7,1.29a6.83,6.83,0,0,1-3.85,1.21C103.74,30.79,101.27,28.52,101.27,24.69Zm8.15-1c0-2.34-1-3.61-2.87-3.61-1.64,0-3.11,1.32-3.35,3.61Z"
          transform="translate(0 0)"/>
    <path class="cls-2"
          d="M118.11,22.57c0-5,2.77-8.11,6.73-8.11s6.73,3.07,6.73,8.11-2.78,8.22-6.73,8.22S118.11,27.62,118.11,22.57Zm11.39,0c0-3.92-1.85-6.34-4.66-6.34s-4.66,2.42-4.66,6.34S122,29,124.84,29,129.5,26.5,129.5,22.57Z"
          transform="translate(0 0)"/>
    <path class="cls-2"
          d="M135.12,26.9V20.45h-1.74V19l1.83-.11.23-3.28h1.65v3.28h3.16v1.61h-3.16v6.48c0,1.43.46,2.25,1.81,2.25a3.85,3.85,0,0,0,1.33-.31l.38,1.49a7.15,7.15,0,0,1-2.17.43C136,30.79,135.12,29.22,135.12,26.9Z"
          transform="translate(0 0)"/>
    <path class="cls-2"
          d="M142.88,13.4h2v4.68l-.07,2.4a5.56,5.56,0,0,1,3.87-1.93c2.46,0,3.56,1.59,3.56,4.56V30.5h-2V23.37c0-2.18-.66-3.11-2.2-3.11-1.19,0-2,.61-3.19,1.8V30.5h-2Z"
          transform="translate(0 0)"/>
    <path class="cls-2"
          d="M155.07,24.69c0-3.8,2.56-6.14,5.25-6.14,3,0,4.65,2.14,4.65,5.47a5.89,5.89,0,0,1-.09,1.12H157c.14,2.48,1.65,4.08,3.87,4.08a5.08,5.08,0,0,0,2.9-.93l.71,1.29a6.83,6.83,0,0,1-3.85,1.21C157.55,30.79,155.07,28.52,155.07,24.69Zm8.16-1c0-2.34-1-3.61-2.88-3.61-1.64,0-3.1,1.32-3.34,3.61Z"
          transform="translate(0 0)"/>
    <path class="cls-2"
          d="M167.84,18.84h1.63l.17,2.12h.07A4,4,0,0,1,173,18.55a2.66,2.66,0,0,1,1.25.24l-.37,1.73a3.15,3.15,0,0,0-1.13-.19c-1,0-2.16.71-3,2.68V30.5h-2Z"
          transform="translate(0 0)"/>
    <path class="cls-2"
          d="M174.78,29.17l1-1.3a5.22,5.22,0,0,0,3.44,1.38c1.53,0,2.29-.81,2.29-1.81,0-1.2-1.37-1.73-2.66-2.21-1.64-.6-3.48-1.4-3.48-3.37s1.49-3.31,4-3.31A5.92,5.92,0,0,1,183,19.86l-.95,1.26a4.4,4.4,0,0,0-2.66-1c-1.47,0-2.15.78-2.15,1.67,0,1.11,1.27,1.53,2.59,2,1.69.64,3.56,1.32,3.56,3.54,0,1.9-1.5,3.47-4.26,3.47A7,7,0,0,1,174.78,29.17Z"
          transform="translate(0 0)"/>
</svg>